<?xml version="1.0" encoding="UTF-8"?><svg id="a" xmlns="http://www.w3.org/2000/svg" viewBox="0 0 585.25 202.66"><defs><style>.b{fill:#fff;}.c{fill:#b0bcc7;}.d{fill:#2e99cc;}.e{fill:#f3931c;}.f{fill:#12b8a9;}.g{fill:#8263a9;}</style></defs><path class="f" d="M48.05,101.44c5.41,5.56,8.84,7.62,13.64,10.96,12.43,8.66,22.94,8.98,35.57,8.08,18.45-1.32,34.46-8.5,46.71-22.93,.69-.81,1.83-2.12,2.86-3.49,.6,1.63,.77,2.66,.52,5.03-.9,8.58-3.25,16.59-7.04,24.26-11.68,22.49-39.12,33-66.18,25.35-23.62-6.68-40.71-31.71-38.52-56.54,.1-1.12,.46-2.73,1.4-4.01,.81,.71,1.6,2.06,2.29,2.87,2.96,3.45,5.85,6.95,8.76,10.43Z"/><path class="g" d="M50.52,48.02c-5.66,5.3-7.78,8.7-11.21,13.44-8.88,12.27-9.4,22.78-8.72,35.42,.98,18.47,7.88,34.61,22.08,47.12,.8,.7,2.09,1.86,3.44,2.92-1.64,.57-2.67,.72-5.03,.43-8.56-1.06-16.53-3.55-24.13-7.48C4.67,127.78-5.33,100.15,2.81,73.23c7.11-23.5,32.45-40.13,57.23-37.49,1.12,.12,2.72,.51,3.99,1.47-.72,.79-2.09,1.56-2.91,2.24-3.5,2.89-7.06,5.72-10.59,8.57Z"/><path class="d" d="M101.11,103.79c5.66-5.3,7.78-8.7,11.21-13.44,8.88-12.27,9.4-22.78,8.72-35.42-.98-18.47-7.88-34.61-22.08-47.12-.8-.7-2.09-1.86-3.44-2.92,1.64-.57,2.67-.72,5.03-.43,8.56,1.06,16.53,3.55,24.13,7.48,22.28,12.09,32.28,39.71,24.14,66.63-7.11,23.5-32.45,40.13-57.23,37.49-1.12-.12-2.72-.51-3.99-1.47,.72-.79,2.09-1.56,2.91-2.24,3.5-2.89,7.06-5.72,10.59-8.57Z"/><path class="e" d="M104.17,51.16c-5.3-5.66-8.7-7.78-13.44-11.21-12.27-8.88-22.78-9.4-35.42-8.72-18.47,.98-34.61,7.88-47.12,22.08-.7,.8-1.86,2.09-2.92,3.44-.57-1.64-.72-2.67-.43-5.03,1.06-8.56,3.55-16.53,7.48-24.13C24.41,5.31,52.04-4.69,78.96,3.45c23.5,7.11,40.13,32.45,37.49,57.23-.12,1.12-.51,2.72-1.47,3.99-.79-.72-1.56-2.09-2.24-2.91-2.89-3.5-5.72-7.06-8.57-10.59Z"/><g><path class="b" d="M194.69,40.19l8.76,37.96c1.89,8.93,3.78,18.03,5.32,27.14h.35c1.72-9.1,4.47-18.38,6.87-26.97l10.82-38.13h17.17l10.48,37.1c2.58,9.79,4.81,18.89,6.7,28h.34c1.38-9.1,3.26-18.21,5.5-28l9.28-37.1h20.78l-26.28,83.64h-19.58l-9.96-34.01c-2.58-8.76-4.47-16.66-6.36-26.79h-.34c-1.72,10.31-3.95,18.55-6.36,26.79l-10.65,34.01h-19.75l-24.73-83.64h21.64Z"/><path class="b" d="M333.12,16.83c0,6.36-4.64,11.34-12.02,11.34s-11.68-4.98-11.68-11.34,4.81-11.51,11.85-11.51,11.68,4.98,11.85,11.51Zm-22.5,107V40.19h21.3V123.83h-21.3Z"/><path class="b" d="M354.59,65.09c0-9.62-.17-17.69-.69-24.9h18.55l1.03,12.54h.51c3.61-6.53,12.71-14.43,26.62-14.43,14.6,0,29.71,9.45,29.71,35.9v49.64h-21.12v-47.23c0-12.02-4.47-21.12-15.97-21.12-8.42,0-14.26,6.01-16.49,12.37-.69,1.89-.86,4.47-.86,6.87v49.12h-21.3v-58.74Z"/><path class="b" d="M455.23,123.83V55.99h-11.33v-15.8h11.33v-3.61c0-10.82,2.92-21.64,10.13-28.51,6.18-5.84,14.6-8.07,21.81-8.07,5.67,0,10.14,.86,13.57,2.06l-1.55,16.32c-2.23-.86-5.15-1.55-8.93-1.55-10.48,0-14.08,8.76-14.08,19.07v4.29h18.38v15.8h-18.21V123.83h-21.12Z"/><path class="b" d="M585.25,81.24c0,30.74-21.64,44.48-42.94,44.48-23.7,0-41.91-16.32-41.91-43.11s18.03-44.31,43.28-44.31,41.56,17.52,41.56,42.94Zm-63.03,.86c0,16.14,7.9,28.34,20.78,28.34,12.02,0,20.44-11.85,20.44-28.68,0-13.05-5.84-27.99-20.27-27.99s-20.95,14.43-20.95,28.34Z"/></g><rect class="c" x="40.87" y="180" width="297.13" height="8.63"/><g><path class="e" d="M358.1,194.55c2.24,1.29,5.59,2.4,9.11,2.4,4.42,0,6.88-2.07,6.88-5.14,0-2.85-1.9-4.53-6.71-6.26-6.21-2.24-10.17-5.53-10.17-10.96,0-6.15,5.14-10.85,13.31-10.85,4.08,0,7.1,.89,9.05,1.9l-1.68,5.53c-1.34-.73-3.97-1.79-7.49-1.79-4.36,0-6.26,2.35-6.26,4.53,0,2.91,2.18,4.25,7.21,6.21,6.54,2.46,9.73,5.76,9.73,11.18,0,6.04-4.58,11.29-14.31,11.29-3.97,0-8.11-1.12-10.17-2.35l1.51-5.7Z"/><path class="e" d="M413.22,188.18c0,10.01-7.05,14.48-13.98,14.48-7.71,0-13.64-5.31-13.64-14.03s5.87-14.42,14.09-14.42,13.53,5.7,13.53,13.98Zm-20.52,.28c0,5.25,2.57,9.22,6.77,9.22,3.91,0,6.65-3.86,6.65-9.34,0-4.25-1.9-9.11-6.6-9.11s-6.82,4.7-6.82,9.22Z"/><path class="e" d="M418.87,162.35h6.93v39.69h-6.93v-39.69Z"/><path class="e" d="M457.61,193.88c0,3.24,.11,5.93,.22,8.16h-6.04l-.33-4.14h-.11c-1.17,1.96-3.86,4.75-8.72,4.75s-9.5-2.96-9.5-11.85v-15.99h6.88v14.82c0,4.53,1.45,7.44,5.09,7.44,2.74,0,4.53-1.96,5.25-3.69,.22-.62,.39-1.34,.39-2.12v-16.44h6.88v19.06Z"/><path class="e" d="M472.92,167.05v7.77h6.54v5.14h-6.54v12.02c0,3.3,.9,5.03,3.52,5.03,1.17,0,2.07-.17,2.68-.34l.11,5.25c-1.01,.39-2.8,.67-4.98,.67-2.52,0-4.64-.84-5.93-2.24-1.45-1.57-2.12-4.03-2.12-7.6v-12.8h-3.91v-5.14h3.91v-6.15l6.71-1.62Z"/><path class="e" d="M491.99,167.21c0,2.07-1.51,3.69-3.91,3.69s-3.8-1.62-3.8-3.69,1.57-3.75,3.86-3.75,3.8,1.62,3.86,3.75Zm-7.32,34.83v-27.23h6.93v27.23h-6.93Z"/><path class="e" d="M524.86,188.18c0,10.01-7.04,14.48-13.97,14.48-7.71,0-13.64-5.31-13.64-14.03s5.87-14.42,14.09-14.42,13.53,5.7,13.53,13.98Zm-20.52,.28c0,5.25,2.57,9.22,6.76,9.22,3.91,0,6.65-3.86,6.65-9.34,0-4.25-1.9-9.11-6.6-9.11s-6.82,4.7-6.82,9.22Z"/><path class="e" d="M530.51,182.92c0-3.13-.06-5.76-.22-8.11h6.04l.33,4.08h.17c1.17-2.12,4.14-4.7,8.66-4.7,4.75,0,9.67,3.08,9.67,11.68v16.16h-6.88v-15.37c0-3.91-1.45-6.88-5.2-6.88-2.74,0-4.64,1.96-5.37,4.02-.22,.62-.28,1.45-.28,2.24v15.99h-6.93v-19.12Z"/><path class="e" d="M562.15,195.73c1.57,.95,4.53,1.96,6.99,1.96,3.02,0,4.36-1.23,4.36-3.02s-1.12-2.8-4.47-3.97c-5.31-1.85-7.55-4.75-7.49-7.94,0-4.81,3.97-8.55,10.29-8.55,3.02,0,5.64,.78,7.21,1.62l-1.34,4.86c-1.17-.67-3.35-1.57-5.76-1.57s-3.8,1.17-3.8,2.85,1.29,2.57,4.75,3.8c4.92,1.79,7.21,4.3,7.27,8.33,0,4.92-3.86,8.5-11.07,8.5-3.3,0-6.26-.78-8.28-1.9l1.34-4.98Z"/></g></svg>